# xmcd CD database file
#
# Track frame offsets:
#	150
#	71450
#	122794
#	194051
#	245446
#
# Disc length: 4215 seconds
#
# Revision: 0
# Processed by: cddbd v1.4PL0 Copyright (c) Steve Scherf et al.
# Submitted via: CDex 1.50beta9
#
DISCID=47107505
DTITLE=David Frank - Lazaris Remembers Lemuria
DYEAR=1985
DGENRE=New Age
TTITLE0=Lazaris 1
TTITLE1=Lazaris 2
TTITLE2=Lazaris 3
TTITLE3=Baião Da Rua
TTITLE4=Você Se Lembra
EXTD=YEAR: 1985
EXTT0=
EXTT1=
EXTT2=
EXTT3=
EXTT4=
PLAYORDER=
